<svg id="visual" viewBox="0 0 960 540" width="960" height="540" xmlns="http://www.w3.org/2000/svg" xmlns:xlink="http://www.w3.org/1999/xlink" version="1.1"><path d="M0 82L14.5 74.8C29 67.7 58 53.3 87.2 55.2C116.3 57 145.7 75 174.8 74C204 73 233 53 262 53C291 53 320 73 349 73C378 73 407 53 436.2 45.8C465.3 38.7 494.7 44.3 523.8 47.2C553 50 582 50 611 51.7C640 53.3 669 56.7 698 56.7C727 56.7 756 53.3 785.2 57.8C814.3 62.3 843.7 74.7 872.8 71.8C902 69 931 51 945.5 42L960 33L960 0L945.5 0C931 0 902 0 872.8 0C843.7 0 814.3 0 785.2 0C756 0 727 0 698 0C669 0 640 0 611 0C582 0 553 0 523.8 0C494.7 0 465.3 0 436.2 0C407 0 378 0 349 0C320 0 291 0 262 0C233 0 204 0 174.8 0C145.7 0 116.3 0 87.2 0C58 0 29 0 14.5 0L0 0Z" fill="#eee0dc"></path><path d="M0 163L14.5 155.8C29 148.7 58 134.3 87.2 135.2C116.3 136 145.7 152 174.8 154.7C204 157.3 233 146.7 262 154C291 161.3 320 186.7 349 191.2C378 195.7 407 179.3 436.2 173C465.3 166.7 494.7 170.3 523.8 174C553 177.7 582 181.3 611 180.3C640 179.3 669 173.7 698 161.8C727 150 756 132 785.2 136.5C814.3 141 843.7 168 872.8 165.3C902 162.7 931 130.3 945.5 114.2L960 98L960 31L945.5 40C931 49 902 67 872.8 69.8C843.7 72.7 814.3 60.3 785.2 55.8C756 51.3 727 54.7 698 54.7C669 54.7 640 51.3 611 49.7C582 48 553 48 523.8 45.2C494.7 42.3 465.3 36.7 436.2 43.8C407 51 378 71 349 71C320 71 291 51 262 51C233 51 204 71 174.8 72C145.7 73 116.3 55 87.2 53.2C58 51.3 29 65.7 14.5 72.8L0 80Z" fill="#ead9d3"></path><path d="M0 282L14.5 281C29 280 58 278 87.2 294.2C116.3 310.3 145.7 344.7 174.8 336.7C204 328.7 233 278.3 262 270.2C291 262 320 296 349 318.5C378 341 407 352 436.2 350.3C465.3 348.7 494.7 334.3 523.8 331.7C553 329 582 338 611 346C640 354 669 361 698 337.5C727 314 756 260 785.2 258.2C814.3 256.3 843.7 306.7 872.8 312.2C902 317.7 931 278.3 945.5 258.7L960 239L960 96L945.5 112.2C931 128.3 902 160.7 872.8 163.3C843.7 166 814.3 139 785.2 134.5C756 130 727 148 698 159.8C669 171.7 640 177.3 611 178.3C582 179.3 553 175.7 523.8 172C494.7 168.3 465.3 164.7 436.2 171C407 177.3 378 193.7 349 189.2C320 184.7 291 159.3 262 152C233 144.7 204 155.3 174.8 152.7C145.7 150 116.3 134 87.2 133.2C58 132.3 29 146.7 14.5 153.8L0 161Z" fill="#e5d3ca"></path><path d="M0 363L14.5 362C29 361 58 359 87.2 376C116.3 393 145.7 429 174.8 427.3C204 425.7 233 386.3 262 371.2C291 356 320 365 349 382C378 399 407 424 436.2 433.8C465.3 443.7 494.7 438.3 523.8 436.5C553 434.7 582 436.3 611 440.8C640 445.3 669 452.7 698 430.2C727 407.7 756 355.3 785.2 350C814.3 344.7 843.7 386.3 872.8 389.2C902 392 931 356 945.5 338L960 320L960 237L945.5 256.7C931 276.3 902 315.7 872.8 310.2C843.7 304.7 814.3 254.3 785.2 256.2C756 258 727 312 698 335.5C669 359 640 352 611 344C582 336 553 327 523.8 329.7C494.7 332.3 465.3 346.7 436.2 348.3C407 350 378 339 349 316.5C320 294 291 260 262 268.2C233 276.3 204 326.7 174.8 334.7C145.7 342.7 116.3 308.3 87.2 292.2C58 276 29 278 14.5 279L0 280Z" fill="#e1cbc0"></path><path d="M0 541L14.5 541C29 541 58 541 87.2 541C116.3 541 145.7 541 174.8 541C204 541 233 541 262 541C291 541 320 541 349 541C378 541 407 541 436.2 541C465.3 541 494.7 541 523.8 541C553 541 582 541 611 541C640 541 669 541 698 541C727 541 756 541 785.2 541C814.3 541 843.7 541 872.8 541C902 541 931 541 945.5 541L960 541L960 318L945.5 336C931 354 902 390 872.8 387.2C843.7 384.3 814.3 342.7 785.2 348C756 353.3 727 405.7 698 428.2C669 450.7 640 443.3 611 438.8C582 434.3 553 432.7 523.8 434.5C494.7 436.3 465.3 441.7 436.2 431.8C407 422 378 397 349 380C320 363 291 354 262 369.2C233 384.3 204 423.7 174.8 425.3C145.7 427 116.3 391 87.2 374C58 357 29 359 14.5 360L0 361Z" fill="#dcc3b6"></path></svg>